PathFileType	4	(X/Y/Z)	C:/Users/beibeiliu/ov580/test_trc/User2\sequence.21_training_dense_left.trc
DataRate	CameraRate	NumFrames	NumMarkers	Units	OrigDataRate	OrigDataStartFrame	OrigNumFrames
120	120	11	19	mm	120	282	322
Frame#	Time	ThumbCMC			ThumbMCP			ThumbIP			ThumbTip			IndexMCP			IndexPIP			IndexTip			MiddleMCP			MiddlePIP			MiddleTip			RingMCP			RingPIP			RingTip			PinkyMCP			PinkyPIP			PinkyTip			BackHand1			BackHand2			BackHand3	
		X0	Y0	Z0	X1	Y1	Z1	X2	Y2	Z2	X3	Y3	Z3	X4	Y4	Z4	X5	Y5	Z5	X6	Y6	Z6	X7	Y7	Z7	X8	Y8	Z8	X9	Y9	Z9	X10	Y10	Z10	X11	Y11	Z11	X12	Y12	Z12	X13	Y13	Z13	X14	Y14	Z14	X15	Y15	Z15	X16	Y16	Z16	X17	Y17	Z17	X18	Y18	Z18	
281	2.34167	-219.265	-2.36485	46.1158	-191.264	17.5023	23.5234	-164.9	24.903	7.32593	-142.076	26.5921	-5.21142	-184.317	-42.2407	-14.3038	-159.01	-28.3107	-32.1481	-136.675	-8.07221	-34.1088	-166.071	-54.718	-11.2562	-143.116	-26.8789	-12.2137	-154.875	-6.08919	17.1128	-151.489	-61.5654	4.44516	-132.144	-38.2172	1.27345	-153.933	-15.8818	24.6469	-145.924	-69.6219	33.4967	-126.678	-51.0197	8.58763	-124.323	-19.3955	18.2851	-191.961	-65.5913	54.8646	-208.799	-60.3619	85.9981	-224.25	-47.0275	52.385	
282	2.35	-220.235	-5.54404	40.9799	-194.452	11.4224	23.5969	-170.234	21.7085	-0.196508	-145.777	23.9006	-16.2122	-185.197	-48.7895	-18.778	-165.323	-35.7283	-34.5287	-140.078	-13.588	-40.2718	-163.971	-60.7511	-9.56758	-146.452	-31.7109	-18.0052	-157.101	-9.50327	11.4362	-151.894	-65.75	2.35218	-136.382	-39.6948	-3.74562	-153.654	-21.7409	26.182	-145.595	-71.6506	27.2282	-124.774	-52.2734	7.12817	-131.801	-22.333	18.136	-190.365	-70.1536	56.0068	-201.228	-61.8957	88.4583	-225.028	-51.9031	52.0415	
283	2.35833	-219.612	-9.9089	44.5278	-194.292	5.63515	17.2389	-171.992	13.2829	-5.82533	-152.741	17.8854	-22.5434	-191.536	-54.9041	-16.1034	-171.277	-43.9668	-35.2572	-146.43	-22.6738	-45.1705	-169.711	-65.1387	-11.5064	-149.092	-39.4065	-19.191	-160.414	-14.2405	9.97998	-151.788	-71.19	4.6527	-136.931	-44.742	-4.66231	-156.094	-27.5666	21.6989	-144.016	-74.2813	26.7601	-126.56	-56.1062	6.72928	-136.321	-26.4881	17.6782	-185.533	-72.4085	61.4812	-202.342	-60.0498	87.7306	-223.631	-54.3224	54.2931	
284	2.36667	-218.982	-10.8471	46.7028	-197.965	4.43158	18.563	-177.555	10.0615	-9.6752	-156.015	7.20462	-26.4493	-196.955	-60.1562	-12.9552	-172.864	-48.3475	-38.1208	-154.783	-29.5767	-51.1651	-176.122	-70.9694	-8.38779	-155.454	-45.9508	-22.8971	-166.36	-18.6991	6.6589	-157.721	-73.0175	2.10425	-142.872	-49.4981	-8.36905	-161.442	-31.4986	18.7255	-149.146	-76.6437	22.4103	-133.496	-58.7595	3.7503	-144.063	-30.7079	25.8442	-187.949	-71.7012	58.6906	-197.38	-61.9849	94.1245	-224.348	-52.993	57.9641	
285	2.375	-220.09	-12.2067	46.4624	-201.764	2.66022	15.6106	-181.456	4.99612	-10.4657	-164.706	6.71114	-32.071	-202.157	-62.5113	-15.4248	-186.778	-51.1712	-41.6387	-166.353	-37.604	-54.1298	-181.055	-75.2265	-10.3064	-163.452	-47.2546	-22.9561	-172.272	-23.2883	6.79463	-164.529	-77.3512	4.14655	-151.459	-52.4397	-9.73675	-164.739	-36.7355	21.7692	-154.481	-79.6068	21.718	-138.042	-58.0164	3.67971	-150.154	-37.4619	24.9573	-192.069	-74.2434	62.5357	-197.89	-62.4034	90.1664	-225.627	-52.6706	63.3796	
286	2.38333	-222.036	-14.1247	46.0811	-204.311	-0.159694	18.2883	-186.583	0.281136	-14.8275	-169.941	-3.81855	-33.7071	-213.052	-64.332	-15.7675	-197.915	-56.6516	-39.2212	-176.958	-45.4664	-53.2958	-193.934	-78.9732	-6.45204	-172.475	-56.0763	-24.3855	-178.065	-29.5735	8.73967	-175.764	-80.956	-2.07066	-158.047	-56.6826	-9.90503	-172.432	-41.615	21.8092	-159.806	-84.8211	21.9943	-148.656	-63.7179	0.724617	-158.98	-41.3564	25.6437	-195.456	-76.4702	60.3544	-205.301	-61.5233	90.8601	-230.849	-51.2547	64.9426	
287	2.39167	-226.437	-11.2253	48.7372	-206.567	-5.3553	15.5283	-191.672	-1.96962	-17.5193	-174.777	-8.1501	-37.8145	-224.246	-64.7628	-15.3144	-208.661	-60.9745	-37.7641	-186.461	-46.1001	-58.623	-204.863	-80.4689	-7.25501	-182.073	-54.4116	-25.6276	-184.717	-31.9908	5.7696	-185.621	-84.4494	-0.25487	-170.029	-63.8302	-15.2744	-179.006	-43.1202	16.6234	-169.819	-87.888	20.2249	-157.992	-67.2928	-1.42486	-166.142	-46.8983	20.0708	-202.702	-79.7884	60.9615	-207.034	-62.535	95.0099	-235.404	-50.9455	65.8532	
288	2.4	-226.854	-11.3547	49.0441	-210.116	-0.519112	14.7277	-194.449	-4.48484	-18.0876	-179.875	-9.30001	-35.0169	-231.237	-66.0366	-11.332	-219.399	-61.047	-38.2459	-198.204	-51.0365	-57.8865	-211.342	-81.3587	-10.3367	-189.385	-59.6274	-25.9887	-190.507	-31.437	5.84765	-192.96	-89.4441	0.146102	-180.78	-67.8801	-17.5825	-184.347	-45.6142	10.1843	-179.519	-92.2206	17.9718	-166.855	-71.3324	-4.87138	-171.249	-47.4169	17.8922	-208.501	-78.5176	64.4071	-209.904	-61.7975	92.5337	-237.316	-52.6376	64.3628	
289	2.40833	-228.952	-8.79292	50.1072	-210.713	-1.45868	15.3477	-195.736	-7.00231	-19.1901	-182.855	-10.3056	-38.8369	-240.908	-61.7181	-8.92287	-223.13	-60.737	-38.5407	-203.773	-53.1501	-57.6398	-221.724	-79.2195	-7.56062	-198.049	-62.1272	-28.8112	-193.843	-33.1281	6.57716	-204.787	-88.1142	-4.51639	-188.33	-67.9499	-19.5758	-185.893	-47.5856	12.3326	-189.014	-94.151	17.5937	-178.028	-81.8007	-9.36016	-175.031	-51.5122	10.9822	-213.767	-78.5595	59.637	-214.569	-64.8551	92.6299	-240.1	-51.9615	68.414	
290	2.41667	-227.905	-7.39838	49.4135	-209.709	-4.00947	12.5417	-195.418	-9.18441	-20.7499	-181.971	-18.5949	-39.93	-246.269	-59.1025	-8.11746	-229.323	-59.6888	-39.1333	-212.669	-52.9903	-57.7244	-227.625	-77.5226	-12.4039	-202.617	-59.4974	-28.1317	-198.153	-32.5603	2.72034	-211.513	-87.6769	-5.53959	-192.53	-69.6455	-20.2884	-190.614	-48.0697	10.9447	-197.666	-96.8209	18.8987	-182.949	-84.9198	-12.2642	-174.882	-58.7705	2.50307	-221.683	-75.9425	62.9204	-217.464	-65.6239	91.5536	-241.775	-50.4947	65.014	
291	2.425	-227.308	-8.00839	47.7316	-205.874	-9.1557	15.3301	-192.986	-11.7057	-18.0674	-180.759	-16.3823	-36.716	-249	-55.4748	-13.9449	-232.614	-57.8249	-38.2789	-214.165	-52.3555	-58.0119	-235.007	-74.5053	-11.1547	-207.299	-60.1846	-29.4554	-199.957	-34.4526	1.88863	-215.669	-88.641	-3.90108	-195.524	-74.0016	-20.4862	-192.639	-49.644	10.3942	-204.528	-101.388	13.4901	-193.832	-90.0317	-13.052	-178.189	-63.575	-4.9689	-220.572	-79.9885	59.975	-217.101	-68.0731	92.0818	-245.538	-47.3554	68.3462	
